<svg width="26" height="26" viewBox="0 0 26 26" fill="none" xmlns="http://www.w3.org/2000/svg">
    <path d="M2.16667 2.16663H4.05167C5.22167 2.16663 6.1425 3.17413 6.045 4.33329L5.14583 15.1233C4.99417 16.8891 6.39166 18.4058 8.16832 18.4058H19.7058C21.2658 18.4058 22.6308 17.1275 22.75 15.5783L23.335 7.4533C23.465 5.65496 22.1 4.19245 20.2908 4.19245H6.30501" stroke="#7B7B7B" stroke-width="1.5" stroke-miterlimit="10" stroke-linecap="round" stroke-linejoin="round"/>
    <path d="M17.6042 23.8333C18.3521 23.8333 18.9583 23.2271 18.9583 22.4792C18.9583 21.7313 18.3521 21.125 17.6042 21.125C16.8563 21.125 16.25 21.7313 16.25 22.4792C16.25 23.2271 16.8563 23.8333 17.6042 23.8333Z" stroke="#7B7B7B" stroke-width="1.5" stroke-miterlimit="10" stroke-linecap="round" stroke-linejoin="round"/>
    <path d="M8.9375 23.8333C9.68538 23.8333 10.2917 23.2271 10.2917 22.4792C10.2917 21.7313 9.68538 21.125 8.9375 21.125C8.18961 21.125 7.58333 21.7313 7.58333 22.4792C7.58333 23.2271 8.18961 23.8333 8.9375 23.8333Z" stroke="#7B7B7B" stroke-width="1.5" stroke-miterlimit="10" stroke-linecap="round" stroke-linejoin="round"/>
    <path d="M9.75 8.66663H22.75" stroke="#7B7B7B" stroke-width="1.5" stroke-miterlimit="10" stroke-linecap="round" stroke-linejoin="round"/>
</svg>
