<svg width="26" height="26" viewBox="0 0 26 26" fill="none" xmlns="http://www.w3.org/2000/svg">
    <path d="M21.71 7.38829L15.47 3.02245C13.7692 1.83079 11.1583 1.89579 9.52251 3.16329L4.095 7.39912C3.01167 8.24412 2.15584 9.97745 2.15584 11.3425V18.8175C2.15584 21.58 4.39834 23.8333 7.16084 23.8333H18.8392C21.6017 23.8333 23.8442 21.5908 23.8442 18.8283V11.4833C23.8442 10.0208 22.9017 8.22245 21.71 7.38829ZM13.8125 19.5C13.8125 19.9441 13.4442 20.3125 13 20.3125C12.5558 20.3125 12.1875 19.9441 12.1875 19.5V16.25C12.1875 15.8058 12.5558 15.4375 13 15.4375C13.4442 15.4375 13.8125 15.8058 13.8125 16.25V19.5Z" fill="#FF7011"/>
</svg>
