<svg width="22" height="22" viewBox="0 0 22 22" fill="none" xmlns="http://www.w3.org/2000/svg">
    <path fill-rule="evenodd" clip-rule="evenodd" d="M11 1.57507C6.85786 1.57507 3.5 4.93294 3.5 9.07507C3.5 9.80305 3.76191 10.7085 4.24654 11.7367C4.72599 12.7539 5.39557 13.8336 6.14597 14.8942C7.64653 17.0149 9.42555 18.9964 10.5203 20.1558C10.7854 20.4366 11.2146 20.4366 11.4797 20.1558C12.5744 18.9964 14.3535 17.0149 15.854 14.8942C16.6044 13.8336 17.274 12.7539 17.7535 11.7367C18.2381 10.7085 18.5 9.80305 18.5 9.07507C18.5 4.93294 15.1421 1.57507 11 1.57507ZM2 9.07507C2 4.10451 6.02944 0.0750732 11 0.0750732C15.9706 0.0750732 20 4.10451 20 9.07507C20 10.1233 19.635 11.2629 19.1103 12.3762C18.5804 13.5005 17.8581 14.6588 17.0785 15.7606C15.5191 17.9645 13.6856 20.0045 12.5704 21.1856C11.7133 22.0933 10.2867 22.0933 9.42962 21.1856C8.31437 20.0045 6.48092 17.9645 4.9215 15.7606C4.14191 14.6588 3.41963 13.5005 2.8897 12.3762C2.36496 11.2629 2 10.1233 2 9.07507ZM11 5.70007C9.51573 5.70007 8.31249 6.90331 8.31249 8.38757C8.31249 9.87184 9.51573 11.0751 11 11.0751C12.4843 11.0751 13.6875 9.87184 13.6875 8.38757C13.6875 6.90331 12.4843 5.70007 11 5.70007ZM6.81249 8.38757C6.81249 6.07488 8.6873 4.20007 11 4.20007C13.3127 4.20007 15.1875 6.07488 15.1875 8.38757C15.1875 10.7003 13.3127 12.5751 11 12.5751C8.6873 12.5751 6.81249 10.7003 6.81249 8.38757Z" fill="#7B7B7B"/>
    <ellipse cx="11" cy="8.38745" rx="3.4375" ry="3.4375" stroke="#7B7B7B" stroke-width="1.5"/>
</svg>
