<svg width="22" height="22" viewBox="0 0 22 22" fill="none" xmlns="http://www.w3.org/2000/svg">
    <path d="M16.4817 9.89084V13.5575C16.4817 13.7958 16.4725 14.025 16.445 14.245C16.2342 16.72 14.7767 17.9483 12.0908 17.9483H11.7242C11.495 17.9483 11.275 18.0583 11.1375 18.2417L10.0375 19.7083C9.55167 20.3592 8.76333 20.3592 8.27749 19.7083L7.17748 18.2417C7.05832 18.0858 6.7925 17.9483 6.59083 17.9483H6.22417C3.3 17.9483 1.83333 17.2242 1.83333 13.5575V9.89084C1.83333 7.20501 3.07084 5.74751 5.53667 5.53667C5.75667 5.50917 5.98584 5.5 6.22417 5.5H12.0908C15.015 5.5 16.4817 6.96667 16.4817 9.89084Z" stroke="#7B7B7B" stroke-width="1.5" stroke-miterlimit="10" stroke-linecap="round" stroke-linejoin="round"/>
    <path d="M20.1484 6.22422V9.89088C20.1484 12.5859 18.9108 14.0342 16.445 14.245C16.4725 14.025 16.4817 13.7959 16.4817 13.5575V9.89088C16.4817 6.96672 15.015 5.50004 12.0908 5.50004H6.22418C5.98585 5.50004 5.75668 5.50922 5.53668 5.53672C5.74752 3.07088 7.20502 1.83337 9.89085 1.83337H15.7575C18.6817 1.83337 20.1484 3.30005 20.1484 6.22422Z" stroke="#7B7B7B" stroke-width="1.5" stroke-miterlimit="10" stroke-linecap="round" stroke-linejoin="round"/>
    <path d="M12.3709 12.1454H12.3791" stroke="#7B7B7B" stroke-width="2" stroke-linecap="round" stroke-linejoin="round"/>
    <path d="M9.16254 12.1454H9.17079" stroke="#7B7B7B" stroke-width="2" stroke-linecap="round" stroke-linejoin="round"/>
    <path d="M5.95421 12.1454H5.96246" stroke="#7B7B7B" stroke-width="2" stroke-linecap="round" stroke-linejoin="round"/>
</svg>
