<svg width="54" height="23" viewBox="0 0 54 23" fill="none" xmlns="http://www.w3.org/2000/svg">
    <path d="M50.7373 0H0.605551C0.210701 0 -0.175314 0.116877 -0.50385 0.3359L-14.1109 9.40727C-15.2694 10.1796 -15.3039 11.8699 -14.1778 12.6888L-0.525976 22.6175C-0.184135 22.8661 0.227682 23 0.650368 23H50.7373C52.2305 23 53.1971 21.4231 52.5196 20.0925L48.6066 12.4075C48.3163 11.8373 48.3163 11.1627 48.6066 10.5925L52.5196 2.90747C53.1971 1.57687 52.2305 0 50.7373 0Z" fill="#14A23C"/>
    <path d="M20.3379 16H17.918L15.5938 12.2197L13.2695 16H11L14.3154 10.8457L11.2119 6.00586H13.5498L15.7031 9.60156L17.8154 6.00586H20.0986L16.9609 10.9619L20.3379 16ZM23.4482 8.35742V11.3789C23.4482 11.5339 23.4414 11.7298 23.4277 11.9668C23.4186 12.1992 23.4049 12.4362 23.3867 12.6777C23.3685 12.9193 23.3503 13.1357 23.332 13.3271C23.3138 13.5186 23.3001 13.6484 23.291 13.7168L26.8184 8.35742H29.3271V16H27.3105V12.9512C27.3105 12.7005 27.3197 12.4248 27.3379 12.124C27.3561 11.8187 27.3766 11.5316 27.3994 11.2627C27.4222 10.9938 27.4382 10.791 27.4473 10.6543L23.9336 16H21.4316V8.35742H23.4482ZM37.8447 9.92285H35.3428V16H33.2578V9.92285H30.749V8.35742H37.8447V9.92285Z" fill="white"/>
</svg>
