<svg width="32" height="32" viewBox="0 0 32 32" fill="none" xmlns="http://www.w3.org/2000/svg">
    <path opacity="0.4" d="M21.5867 2.66669H10.4133C5.56 2.66669 2.66667 5.56002 2.66667 10.4134V21.5734C2.66667 26.44 5.56 29.3334 10.4133 29.3334H21.5733C26.4267 29.3334 29.32 26.44 29.32 21.5867V10.4134C29.3333 5.56002 26.44 2.66669 21.5867 2.66669Z" fill="#14A23C"/>
    <path d="M14.1067 20.7733C13.84 20.7733 13.5867 20.6667 13.4 20.48L9.62667 16.7067C9.24 16.32 9.24 15.68 9.62667 15.2933C10.0133 14.9067 10.6533 14.9067 11.04 15.2933L14.1067 18.36L20.96 11.5067C21.3467 11.12 21.9867 11.12 22.3733 11.5067C22.76 11.8933 22.76 12.5333 22.3733 12.92L14.8133 20.48C14.6267 20.6667 14.3733 20.7733 14.1067 20.7733Z" fill="#14A23C"/>
</svg>
